<?xml version="1.0" standalone="no"?>
<!DOCTYPE svg PUBLIC "-//W3C//DTD SVG 20010904//EN"
 "http://www.w3.org/TR/2001/REC-SVG-20010904/DTD/svg10.dtd">
<svg version="1.0" xmlns="http://www.w3.org/2000/svg"
 width="3200.000000pt" height="2800.000000pt" viewBox="0 0 3200.000000 2800.000000"
 preserveAspectRatio="xMidYMid meet">

<g transform="translate(0.000000,2800.000000) scale(0.100000,-0.100000)"
fill="#000000" stroke="none">
<path d="M0 14000 l0 -14000 16000 0 16000 0 0 14000 0 14000 -16000 0 -16000
0 0 -14000z m18636 3717 c67 -34 138 -114 160 -179 24 -74 16 -179 -20 -244
-38 -70 -6010 -6041 -6076 -6075 -65 -34 -204 -34 -272 -1 -60 30 -120 89
-149 150 -34 68 -34 198 0 262 30 59 6017 6051 6076 6082 63 33 85 38 160 34
51 -2 84 -10 121 -29z m619 -3435 c115 -55 179 -155 179 -282 1 -140 124 -8
-1661 -1791 -1787 -1786 -1635 -1645 -1778 -1643 -117 1 -218 63 -273 168 -23
44 -27 63 -27 141 0 75 4 98 24 135 30 59 3197 3232 3256 3262 58 30 82 36
155 37 52 1 77 -5 125 -27z"/>
</g>
</svg>
